<svg xmlns="http://www.w3.org/2000/svg" version="1.1" xmlns:xlink="http://www.w3.org/1999/xlink" xmlns:svgjs="http://svgjs.dev/svgjs" width="1500" height="515" viewBox="0 0 1500 515"><g transform="matrix(1,0,0,1,-0.9090909090909918,-0.4831974244168009)"><svg viewBox="0 0 396 136" data-background-color="#ffffff" preserveAspectRatio="xMidYMid meet" height="515" width="1500" xmlns="http://www.w3.org/2000/svg" xmlns:xlink="http://www.w3.org/1999/xlink"><g id="tight-bounds" transform="matrix(1,0,0,1,0.2400000000000091,0.12760164994307388)"><svg viewBox="0 0 395.52 135.74479670011385" height="135.74479670011385" width="395.52"><g><svg viewBox="0 0 658.1480531903089 225.88029348425923" height="135.74479670011385" width="395.52"><g transform="matrix(1,0,0,1,260.650453190309,64.24572907486868)"><svg viewBox="0 0 397.4975999999999 97.38883533452186" height="97.38883533452186" width="397.4975999999999"><g id="textblocktransform"><svg viewBox="0 0 397.4975999999999 97.38883533452186" height="97.38883533452186" width="397.4975999999999" id="textblock"><g><rect width="397.4975999999999" height="5.728829701098055" x="0" y="70.27450452474802" fill="#ac6aff" opacity="1" stroke-width="0" stroke="transparent" fill-opacity="1" class="rect-yte-0" data-fill-palette-color="primary" rx="1%" id="yte-0" data-palette-color="#ac6aff"></rect></g><g transform="matrix(1,0,0,1,0.9887999999999693,0)"><svg viewBox="0 0 395.52 63.52588314910895" height="63.52588314910895" width="395.52"><g transform="matrix(1,0,0,1,0,0)"><svg width="395.52" viewBox="4 -35.05 221.63 35.599999999999994" height="63.52588314910895" data-palette-color="#ac6aff"><path d="M22.3 0L4 0 4.6-12.15 4-34.5 22.75-34.5 22.2-29.15 10.95-29.15 10.65-20.3 20.65-20.3 20.1-15 10.45-15 10.4-13 10.75-5.3 22.85-5.3 22.3 0ZM36.1-19.25Q33.9-19.25 32.7-17.68 31.5-16.1 31.5-12.85 31.5-9.6 32.72-7.63 33.95-5.65 36.3-5.65L36.3-5.65Q37.5-5.65 38.65-6.4 39.8-7.15 40.4-7.9L40.4-7.9 40.95-8.7 43.45-6.1Q43.3-5.85 43.07-5.4 42.85-4.95 41.97-3.8 41.1-2.65 40.12-1.78 39.15-0.9 37.6-0.18 36.05 0.55 34.35 0.55L34.35 0.55Q30.6 0.55 28.25-2.5 25.9-5.55 25.9-10.45L25.9-10.45Q25.9-16.55 29.45-21.15 33-25.75 37.75-25.75L37.75-25.75Q39.2-25.75 40.65-25.33 42.1-24.9 43.6-24L43.6-24 40.1-17.85Q38.3-19.25 36.1-19.25ZM45.24-10.45Q45.24-16.85 48.7-21.3 52.14-25.75 56.77-25.75 61.39-25.75 63.97-22.75 66.55-19.75 66.55-14.8L66.55-14.8Q66.55-8.2 63.22-3.83 59.89 0.55 54.84 0.55L54.84 0.55Q50.7 0.55 47.97-2.58 45.24-5.7 45.24-10.45L45.24-10.45ZM60.95-12.2L60.95-12.2Q60.95-19.45 55.99-19.45L55.99-19.45Q50.84-19.45 50.84-12.65L50.84-12.65Q50.84-9.1 52.3-7.1 53.74-5.1 56.12-5.1 58.49-5.1 59.72-6.93 60.95-8.75 60.95-12.2ZM85.34-12.65Q85.34-16.1 84.74-17.25 84.14-18.4 81.94-18.4 79.74-18.4 76.94-16.65L76.94-16.65 76.94-13 77.49-1.25 70.79 0 71.39-12.15Q71.19-18.85 70.29-24.15L70.29-24.15 76.34-25.45Q76.69-22.55 76.84-19.8L76.84-19.8Q77.59-20.8 78.54-21.78 79.49-22.75 81.54-23.98 83.59-25.2 85.69-25.2 87.79-25.2 89.24-23.85 90.69-22.5 91.09-20.15L91.09-20.15Q95.24-25.2 99.49-25.2L99.49-25.2Q102.14-25.2 103.69-23.43 105.24-21.65 105.24-18.6L105.24-18.6 104.94-13 105.49-1 98.74 0.25 99.34-12.65Q99.34-16.1 98.74-17.25 98.14-18.4 95.99-18.4 93.84-18.4 91.14-16.75L91.14-16.75 90.94-13 91.49-1 84.74 0.25 85.34-12.65ZM124.14 0.55L124.14 0.55Q117.59 0.55 113.59-3.85 109.59-8.25 109.59-15.5L109.59-15.5Q109.59-23.75 114.59-29.4 119.59-35.05 126.89-35.05L126.89-35.05Q129.79-35.05 132.27-34.52 134.74-34 135.79-33.45L135.79-33.45 136.79-32.9 133.89-25.95Q132.39-26.95 129.84-27.83 127.29-28.7 125.34-28.7L125.34-28.7Q121.29-28.7 118.84-25.85 116.39-23 116.39-18.3L116.39-18.3Q116.39-11.95 118.72-8.4 121.04-4.85 125.19-4.85L125.19-4.85Q127.89-4.85 130.29-5.6L130.29-5.6 130.29-13.35 123.84-13.35 124.34-18.4 136.34-18.4 135.89-10.25 136.24-1.6Q128.89 0.55 124.14 0.55ZM142.24-24.15L142.24-24.15 148.29-25.45Q148.74-21.6 148.89-18.15L148.89-18.15Q153.44-25.2 157.44-25.2L157.44-25.2 156.89-17.4Q153.99-17.4 152.31-16.88 150.64-16.35 148.89-14.8L148.89-14.8 148.89-13 149.44-1.25 142.74 0 143.34-12.15Q143.14-18.85 142.24-24.15ZM159.09-10.45Q159.09-16.85 162.54-21.3 165.99-25.75 170.61-25.75 175.24-25.75 177.81-22.75 180.39-19.75 180.39-14.8L180.39-14.8Q180.39-8.2 177.06-3.83 173.74 0.55 168.69 0.55L168.69 0.55Q164.54 0.55 161.81-2.58 159.09-5.7 159.09-10.45L159.09-10.45ZM174.79-12.2L174.79-12.2Q174.79-19.45 169.84-19.45L169.84-19.45Q164.69-19.45 164.69-12.65L164.69-12.65Q164.69-9.1 166.14-7.1 167.59-5.1 169.96-5.1 172.34-5.1 173.56-6.93 174.79-8.75 174.79-12.2ZM191.33-14.4L193.18-6.25 193.83-6.25 195.48-13.1 198.18-25.45 204.38-24.7 200.63-12.3 197.48-0.6 188.93 0.15 185.98-12 182.38-24.15 189.18-25.4 191.33-14.4ZM216.68-5.1L216.68-5.1Q218.13-5.1 219.73-5.85 221.33-6.6 222.23-7.35L222.23-7.35 223.13-8.1 225.43-5.3Q224.93-4.45 223.88-3.35 222.83-2.25 221.76-1.48 220.68-0.7 218.91-0.08 217.13 0.55 215.23 0.55L215.23 0.55Q211.18 0.55 208.63-2.53 206.08-5.6 206.08-10.45L206.08-10.45Q206.08-16.55 209.63-21.15 213.18-25.75 217.93-25.75L217.93-25.75Q221.58-25.75 223.61-23.7 225.63-21.65 225.63-17.95L225.63-17.95Q225.63-15.75 224.88-12.95L224.88-12.95 223.88-11.9 211.38-10.75Q212.23-5.1 216.68-5.1ZM216.68-20.6L216.68-20.6Q214.48-20.6 212.98-18.82 211.48-17.05 211.23-14.3L211.23-14.3 219.73-15.35Q219.88-16.5 219.88-17.25L219.88-17.25Q219.88-20.6 216.68-20.6Z" opacity="1" transform="matrix(1,0,0,1,0,0)" fill="#ac6aff" class="wordmark-text-0" data-fill-palette-color="primary" id="text-0"></path></svg></g></svg></g><g transform="matrix(1,0,0,1,0,82.75195560148515)"><svg viewBox="0 0 232.209792 14.636879733036707" height="14.636879733036707" width="232.209792"><g transform="matrix(1,0,0,1,0,0)"><svg width="232.209792" viewBox="2.66 -36.74 592.5400000000001 37.35" height="14.636879733036707" data-palette-color="#ffc876"><path d="M17.87 0.61L17.87 0.61Q13.43 0.61 9.99-1.48 6.54-3.56 4.6-7.48 2.66-11.4 2.66-16.89L2.66-16.89Q2.66-22.34 4.66-26.27 6.67-30.2 10.16-32.34 13.65-34.47 18.14-34.47L18.14-34.47Q21.66-34.47 24-33.15 26.34-31.84 27.81-30.3L27.81-30.3 25.61-27.76Q24.34-29.13 22.56-30.02 20.78-30.91 18.24-30.91L18.24-30.91Q14.77-30.91 12.21-29.21 9.64-27.51 8.24-24.4 6.84-21.29 6.84-16.99L6.84-16.99Q6.84-10.5 9.79-6.71 12.74-2.93 18.24-2.93L18.24-2.93Q20.09-2.93 21.78-3.45 23.46-3.98 24.51-4.98L24.51-4.98 24.51-14.06 17.21-14.06 17.21-17.41 28.22-17.41 28.22-3.3Q26.61-1.59 23.93-0.49 21.24 0.61 17.87 0.61ZM39.91 0L35.96 0 35.96-24.98 39.26-24.98 39.62-20.46 39.72-20.46Q41.04-22.8 42.87-24.21 44.7-25.61 46.82-25.61L46.82-25.61Q48.44-25.61 49.46-25.1L49.46-25.1 48.58-21.73Q48.04-21.9 47.57-21.97 47.09-22.05 46.31-22.05L46.31-22.05Q44.72-22.05 42.97-20.74 41.21-19.43 39.91-16.16L39.91-16.16 39.91 0ZM63.25 0.61L63.25 0.61Q60.22 0.61 57.6-0.93 54.98-2.47 53.38-5.38 51.78-8.3 51.78-12.45L51.78-12.45Q51.78-16.63 53.38-19.57 54.98-22.51 57.6-24.06 60.22-25.61 63.25-25.61L63.25-25.61Q66.33-25.61 68.96-24.06 71.6-22.51 73.2-19.57 74.8-16.63 74.8-12.45L74.8-12.45Q74.8-8.3 73.2-5.38 71.6-2.47 68.96-0.93 66.33 0.61 63.25 0.61ZM63.25-2.66L63.25-2.66Q66.6-2.66 68.67-5.36 70.75-8.06 70.75-12.45L70.75-12.45Q70.75-16.87 68.67-19.59 66.6-22.31 63.25-22.31L63.25-22.31Q61.08-22.31 59.39-21.07 57.71-19.82 56.77-17.61 55.83-15.41 55.83-12.45L55.83-12.45Q55.83-8.06 57.91-5.36 59.98-2.66 63.25-2.66ZM90.1 0L85.47 0 78.46-24.98 82.49-24.98 86.35-10.3Q86.76-8.52 87.13-6.82 87.49-5.13 87.83-3.34L87.83-3.34 88.05-3.34Q88.47-5.13 88.91-6.85 89.35-8.57 89.81-10.3L89.81-10.3 93.72-24.98 97.7-24.98 101.65-10.3Q102.12-8.52 102.56-6.82 103-5.13 103.41-3.34L103.41-3.34 103.61-3.34Q104.05-5.13 104.42-6.82 104.8-8.52 105.22-10.3L105.22-10.3 108.98-24.98 112.74-24.98 105.97 0 101.14 0 97.43-13.75Q96.97-15.53 96.56-17.3 96.16-19.07 95.67-20.92L95.67-20.92 95.48-20.92Q95.09-19.07 94.68-17.27 94.28-15.48 93.72-13.7L93.72-13.7 90.1 0ZM144.25 0L140.22 0 140.22-13.18 130.09-33.84 134.31-33.84 138.83-24.1Q139.66-22.24 140.45-20.43 141.25-18.63 142.13-16.75L142.13-16.75 142.35-16.75Q143.22-18.63 144.1-20.43 144.98-22.24 145.79-24.1L145.79-24.1 150.23-33.84 154.41-33.84 144.25-13.18 144.25 0ZM168.25 0.61L168.25 0.61Q165.22 0.61 162.59-0.93 159.97-2.47 158.37-5.38 156.77-8.3 156.77-12.45L156.77-12.45Q156.77-16.63 158.37-19.57 159.97-22.51 162.59-24.06 165.22-25.61 168.25-25.61L168.25-25.61Q171.32-25.61 173.96-24.06 176.6-22.51 178.2-19.57 179.79-16.63 179.79-12.45L179.79-12.45Q179.79-8.3 178.2-5.38 176.6-2.47 173.96-0.93 171.32 0.61 168.25 0.61ZM168.25-2.66L168.25-2.66Q171.59-2.66 173.67-5.36 175.74-8.06 175.74-12.45L175.74-12.45Q175.74-16.87 173.67-19.59 171.59-22.31 168.25-22.31L168.25-22.31Q166.07-22.31 164.39-21.07 162.7-19.82 161.76-17.61 160.82-15.41 160.82-12.45L160.82-12.45Q160.82-8.06 162.9-5.36 164.98-2.66 168.25-2.66ZM193.81 0.61L193.81 0.61Q189.88 0.61 188.03-1.86 186.19-4.32 186.19-9.11L186.19-9.11 186.19-24.98 190.09-24.98 190.09-9.62Q190.09-6.08 191.25-4.46 192.41-2.83 195-2.83L195-2.83Q196.96-2.83 198.51-3.85 200.06-4.86 201.91-7.15L201.91-7.15 201.91-24.98 205.82-24.98 205.82 0 202.57 0 202.23-3.96 202.06-3.96Q200.32-1.9 198.35-0.65 196.37 0.61 193.81 0.61ZM218.39 0L214.43 0 214.43-24.98 217.73-24.98 218.1-20.46 218.19-20.46Q219.51-22.8 221.34-24.21 223.17-25.61 225.3-25.61L225.3-25.61Q226.91-25.61 227.93-25.1L227.93-25.1 227.06-21.73Q226.52-21.9 226.04-21.97 225.57-22.05 224.78-22.05L224.78-22.05Q223.2-22.05 221.44-20.74 219.68-19.43 218.39-16.16L218.39-16.16 218.39 0ZM260.99 0.61L260.99 0.61Q256.76 0.61 253.52-1.55 250.27-3.71 248.44-7.68 246.61-11.65 246.61-17.04L246.61-17.04Q246.61-22.46 248.44-26.37 250.27-30.27 253.52-32.37 256.76-34.47 260.99-34.47L260.99-34.47Q265.21-34.47 268.46-32.36 271.7-30.25 273.53-26.34 275.37-22.44 275.37-17.04L275.37-17.04Q275.37-11.65 273.53-7.68 271.7-3.71 268.46-1.55 265.21 0.61 260.99 0.61ZM260.99-2.93L260.99-2.93Q264.09-2.93 266.39-4.66 268.7-6.4 269.97-9.57 271.24-12.74 271.24-17.04L271.24-17.04Q271.24-21.34 269.97-24.44 268.7-27.54 266.39-29.22 264.09-30.91 260.99-30.91L260.99-30.91Q257.93-30.91 255.63-29.22 253.32-27.54 252.05-24.44 250.78-21.34 250.78-17.04L250.78-17.04Q250.78-12.74 252.05-9.57 253.32-6.4 255.63-4.66 257.93-2.93 260.99-2.93ZM286.28 0L282.32 0 282.32-24.98 285.62-24.98 285.98-21.39 286.08-21.39Q287.89-23.17 289.91-24.39 291.94-25.61 294.53-25.61L294.53-25.61Q298.43-25.61 300.27-23.13 302.1-20.65 302.1-15.87L302.1-15.87 302.1 0 298.19 0 298.19-15.36Q298.19-18.92 297.04-20.56 295.9-22.19 293.28-22.19L293.28-22.19Q291.35-22.19 289.79-21.17 288.23-20.14 286.28-18.19L286.28-18.19 286.28 0ZM314.62 0.61L314.62 0.61Q312.37 0.61 311.36-0.77 310.35-2.15 310.35-4.79L310.35-4.79 310.35-36.74 314.3-36.74 314.3-4.47Q314.3-3.47 314.67-3.06 315.03-2.66 315.55-2.66L315.55-2.66Q315.74-2.66 315.92-2.67 316.11-2.69 316.43-2.76L316.43-2.76 316.94 0.2Q316.52 0.37 315.94 0.49 315.35 0.61 314.62 0.61ZM327.26 0L323.31 0 323.31-24.98 327.26-24.98 327.26 0ZM325.36-30.25L325.36-30.25Q324.16-30.25 323.43-30.99 322.7-31.74 322.7-32.98L322.7-32.98Q322.7-34.13 323.43-34.86 324.16-35.6 325.36-35.6L325.36-35.6Q326.55-35.6 327.29-34.86 328.02-34.13 328.02-32.98L328.02-32.98Q328.02-31.74 327.29-30.99 326.55-30.25 325.36-30.25ZM339.83 0L335.88 0 335.88-24.98 339.17-24.98 339.54-21.39 339.64-21.39Q341.44-23.17 343.47-24.39 345.5-25.61 348.09-25.61L348.09-25.61Q351.99-25.61 353.82-23.13 355.65-20.65 355.65-15.87L355.65-15.87 355.65 0 351.75 0 351.75-15.36Q351.75-18.92 350.6-20.56 349.45-22.19 346.84-22.19L346.84-22.19Q344.91-22.19 343.35-21.17 341.79-20.14 339.83-18.19L339.83-18.19 339.83 0ZM373.94 0.61L373.94 0.61Q370.64 0.61 367.94-0.95 365.25-2.51 363.65-5.44 362.05-8.37 362.05-12.45L362.05-12.45Q362.05-16.53 363.65-19.48 365.25-22.44 367.81-24.02 370.37-25.61 373.23-25.61L373.23-25.61Q377.94-25.61 380.53-22.46 383.12-19.31 383.12-13.89L383.12-13.89Q383.12-12.52 382.97-11.57L382.97-11.57 365.95-11.57Q366.15-7.5 368.44-5 370.74-2.51 374.4-2.51L374.4-2.51Q376.28-2.51 377.84-3.02 379.41-3.52 380.75-4.42L380.75-4.42 382.14-1.95Q380.5-0.83 378.53-0.11 376.55 0.61 373.94 0.61ZM365.9-14.43L365.9-14.43 379.63-14.43Q379.63-18.36 377.97-20.41 376.31-22.46 373.28-22.46L373.28-22.46Q370.57-22.46 368.43-20.36 366.3-18.26 365.9-14.43ZM409.87 0L405.87 0 405.87-33.84 415.34-33.84Q419.12-33.84 421.97-32.9 424.81-31.96 426.39-29.8 427.96-27.64 427.96-23.95L427.96-23.95Q427.96-18.65 424.53-16.13 421.1-13.6 415.53-13.6L415.53-13.6 409.87-13.6 409.87 0ZM409.87-30.54L409.87-16.85 414.97-16.85Q419.54-16.85 421.75-18.54 423.96-20.24 423.96-23.95L423.96-23.95Q423.96-27.71 421.66-29.13 419.37-30.54 414.78-30.54L414.78-30.54 409.87-30.54ZM438.46 0L434.5 0 434.5-24.98 437.8-24.98 438.16-20.46 438.26-20.46Q439.58-22.8 441.41-24.21 443.24-25.61 445.37-25.61L445.37-25.61Q446.98-25.61 448-25.1L448-25.1 447.12-21.73Q446.59-21.9 446.11-21.97 445.63-22.05 444.85-22.05L444.85-22.05Q443.27-22.05 441.51-20.74 439.75-19.43 438.46-16.16L438.46-16.16 438.46 0ZM462.21 0.61L462.21 0.61Q458.91 0.61 456.21-0.95 453.52-2.51 451.92-5.44 450.32-8.37 450.32-12.45L450.32-12.45Q450.32-16.53 451.92-19.48 453.52-22.44 456.08-24.02 458.64-25.61 461.5-25.61L461.5-25.61Q466.21-25.61 468.8-22.46 471.39-19.31 471.39-13.89L471.39-13.89Q471.39-12.52 471.24-11.57L471.24-11.57 454.22-11.57Q454.42-7.5 456.72-5 459.01-2.51 462.67-2.51L462.67-2.51Q464.55-2.51 466.11-3.02 467.68-3.52 469.02-4.42L469.02-4.42 470.41-1.95Q468.78-0.83 466.8-0.11 464.82 0.61 462.21 0.61ZM454.18-14.43L454.18-14.43 467.9-14.43Q467.9-18.36 466.24-20.41 464.58-22.46 461.55-22.46L461.55-22.46Q458.84-22.46 456.7-20.36 454.57-18.26 454.18-14.43ZM484.11 0.61L484.11 0.61Q481.32 0.61 478.93-0.33 476.54-1.27 474.83-2.93L474.83-2.93 476.68-5.25Q478.27-3.93 480.06-3.2 481.86-2.47 484.25-2.47L484.25-2.47Q486.77-2.47 488.04-3.67 489.31-4.88 489.31-6.54L489.31-6.54Q489.31-7.86 488.48-8.73 487.65-9.59 486.34-10.21 485.03-10.82 483.59-11.33L483.59-11.33Q481.74-12.01 480.05-12.92 478.37-13.82 477.29-15.19 476.22-16.55 476.22-18.6L476.22-18.6Q476.22-21.53 478.44-23.57 480.66-25.61 484.72-25.61L484.72-25.61Q487.03-25.61 489-24.82 490.97-24.02 492.41-22.83L492.41-22.83 490.6-20.51Q489.28-21.46 487.88-21.98 486.47-22.51 484.76-22.51L484.76-22.51Q482.3-22.51 481.16-21.37 480.03-20.24 480.03-18.8L480.03-18.8Q480.03-17.02 481.54-16.11 483.06-15.21 485.33-14.36L485.33-14.36Q487.3-13.67 489.09-12.78 490.87-11.89 491.99-10.47 493.11-9.06 493.11-6.74L493.11-6.74Q493.11-3.71 490.79-1.55 488.48 0.61 484.11 0.61ZM509.13 0.61L509.13 0.61Q505.83 0.61 503.13-0.95 500.44-2.51 498.84-5.44 497.24-8.37 497.24-12.45L497.24-12.45Q497.24-16.53 498.84-19.48 500.44-22.44 503-24.02 505.56-25.61 508.42-25.61L508.42-25.61Q513.13-25.61 515.72-22.46 518.31-19.31 518.31-13.89L518.31-13.89Q518.31-12.52 518.16-11.57L518.16-11.57 501.14-11.57Q501.34-7.5 503.63-5 505.93-2.51 509.59-2.51L509.59-2.51Q511.47-2.51 513.03-3.02 514.6-3.52 515.94-4.42L515.94-4.42 517.33-1.95Q515.69-0.83 513.72-0.11 511.74 0.61 509.13 0.61ZM501.09-14.43L501.09-14.43 514.82-14.43Q514.82-18.36 513.16-20.41 511.5-22.46 508.47-22.46L508.47-22.46Q505.76-22.46 503.62-20.36 501.49-18.26 501.09-14.43ZM528.49 0L524.53 0 524.53-24.98 527.83-24.98 528.19-21.39 528.29-21.39Q530.1-23.17 532.12-24.39 534.15-25.61 536.74-25.61L536.74-25.61Q540.64-25.61 542.47-23.13 544.31-20.65 544.31-15.87L544.31-15.87 544.31 0 540.4 0 540.4-15.36Q540.4-18.92 539.25-20.56 538.1-22.19 535.49-22.19L535.49-22.19Q533.56-22.19 532-21.17 530.44-20.14 528.49-18.19L528.49-18.19 528.49 0ZM562.34 0.61L562.34 0.61Q559.05 0.61 556.41-0.93 553.78-2.47 552.24-5.38 550.7-8.3 550.7-12.45L550.7-12.45Q550.7-16.63 552.36-19.57 554.02-22.51 556.74-24.06 559.46-25.61 562.64-25.61L562.64-25.61Q565.13-25.61 566.89-24.76 568.64-23.9 569.96-22.66L569.96-22.66 567.96-20.19Q566.91-21.17 565.63-21.74 564.35-22.31 562.81-22.31L562.81-22.31Q560.49-22.31 558.67-21.07 556.85-19.82 555.8-17.61 554.75-15.41 554.75-12.45L554.75-12.45Q554.75-8.06 556.95-5.36 559.15-2.66 562.71-2.66L562.71-2.66Q564.49-2.66 566.01-3.34 567.52-4.03 568.67-5.08L568.67-5.08 570.43-2.56Q566.98 0.61 562.34 0.61ZM586.02 0.61L586.02 0.61Q582.73 0.61 580.03-0.95 577.33-2.51 575.73-5.44 574.13-8.37 574.13-12.45L574.13-12.45Q574.13-16.53 575.73-19.48 577.33-22.44 579.9-24.02 582.46-25.61 585.32-25.61L585.32-25.61Q590.03-25.61 592.62-22.46 595.2-19.31 595.2-13.89L595.2-13.89Q595.2-12.52 595.06-11.57L595.06-11.57 578.04-11.57Q578.24-7.5 580.53-5 582.83-2.51 586.49-2.51L586.49-2.51Q588.37-2.51 589.93-3.02 591.49-3.52 592.84-4.42L592.84-4.42 594.23-1.95Q592.59-0.83 590.61-0.11 588.64 0.61 586.02 0.61ZM577.99-14.43L577.99-14.43 591.71-14.43Q591.71-18.36 590.05-20.41 588.39-22.46 585.36-22.46L585.36-22.46Q582.65-22.46 580.52-20.36 578.38-18.26 577.99-14.43Z" opacity="1" transform="matrix(1,0,0,1,0,0)" fill="#ffc876" class="slogan-text-1" data-fill-palette-color="secondary" id="text-1"></path></svg></g></svg></g></svg></g></svg></g><g><svg viewBox="0 0 245.65351679999995 225.88029348425923" height="225.88029348425923" width="245.65351679999995"><g><svg xmlns="http://www.w3.org/2000/svg" xmlns:xlink="http://www.w3.org/1999/xlink" version="1.1" x="0" y="0" viewBox="13.754 18.511 68.491 62.97800000000001" enable-background="new 0 0 100 100" xml:space="preserve" height="225.88029348425923" width="245.65351679999995" class="icon-icon-0" data-fill-palette-color="accent" id="icon-0"><path d="M49.14 48.593L49.162 48.597 49.161 48.619C49.39 48.902 49.599 49.196 49.792 49.506 51.969 52.988 52.141 57.949 52.137 59.533 52.135 57.899 51.856 52.677 48.579 49.399 44.657 45.478 37.929 45.849 37.929 45.849S37.558 52.578 41.478 56.5C43.753 58.774 46.97 59.603 49.272 59.897 49.227 59.89 49.185 59.886 49.139 59.878V66.79H52.152V49.331C54.444 49.021 57.584 48.182 59.815 45.948 63.736 42.027 63.365 35.298 63.365 35.298S56.636 34.927 52.715 38.849C51.001 40.563 50.109 42.809 49.646 44.796" fill="#ac6aff" data-fill-palette-color="accent"></path><path d="M50.755 18.511V21.511C66.464 21.511 79.244 34.291 79.244 50S66.464 78.489 50.755 78.489C35.111 78.489 22.376 65.812 22.273 50.192H28.244L20.999 42.947 13.754 50.192H19.274C19.378 67.466 33.46 81.489 50.756 81.489 68.119 81.489 82.245 67.363 82.245 50S68.118 18.511 50.755 18.511" fill="#ac6aff" data-fill-palette-color="accent"></path></svg></g></svg></g></svg></g><defs></defs></svg><rect width="395.52" height="135.74479670011385" fill="none" stroke="none" visibility="hidden"></rect></g></svg></g></svg>